<mxfile host="65bd71144e">
    <diagram id="Z5sQnN88idRZ-MSKcD9D" name="第 1 页">
        <mxGraphModel dx="1394" dy="922" grid="1" gridSize="10" guides="1" tooltips="1" connect="1" arrows="1" fold="1" page="1" pageScale="1" pageWidth="1169" pageHeight="827" math="0" shadow="0">
            <root>
                <mxCell id="0"/>
                <mxCell id="1" parent="0"/>
                <mxCell id="2" value="销售与收款循环业务流程图" style="swimlane;childLayout=stackLayout;resizeParent=1;resizeParentMax=0;horizontal=0;startSize=20;horizontalStack=0;html=1;fillColor=#dae8fc;strokeColor=#6c8ebf;verticalAlign=middle;fontFamily=仿宋;container=0;" parent="1" vertex="1">
                    <mxGeometry x="50" y="20" width="960" height="960" as="geometry"/>
                </mxCell>
                <mxCell id="7" value="支付平台" style="swimlane;startSize=20;horizontal=0;fillColor=#dae8fc;gradientColor=none;strokeColor=#6c8ebf;fontFamily=仿宋;html=1;fontStyle=1" parent="1" vertex="1">
                    <mxGeometry x="70" y="20" width="940" height="240" as="geometry">
                        <mxRectangle x="20" width="940" height="30" as="alternateBounds"/>
                    </mxGeometry>
                </mxCell>
                <mxCell id="14" value="" style="edgeStyle=none;html=1;fontFamily=仿宋;" edge="1" parent="7" source="12">
                    <mxGeometry relative="1" as="geometry">
                        <mxPoint x="260" y="120" as="targetPoint"/>
                    </mxGeometry>
                </mxCell>
                <mxCell id="12" value="开始" style="strokeWidth=2;html=1;shape=mxgraph.flowchart.start_1;whiteSpace=wrap;fontFamily=仿宋;" vertex="1" parent="7">
                    <mxGeometry x="90" y="90" width="100" height="60" as="geometry"/>
                </mxCell>
                <mxCell id="19" value="" style="group;movable=1;resizable=1;rotatable=1;deletable=1;editable=1;connectable=1;" vertex="1" connectable="0" parent="7">
                    <mxGeometry x="260" y="50" width="100" height="140" as="geometry"/>
                </mxCell>
                <mxCell id="24" value="" style="group" vertex="1" connectable="0" parent="19">
                    <mxGeometry width="100" height="140" as="geometry"/>
                </mxCell>
                <mxCell id="16" value="流程名称" style="rounded=1;whiteSpace=wrap;html=1;absoluteArcSize=1;arcSize=14;strokeWidth=2;fontFamily=仿宋;" vertex="1" parent="24">
                    <mxGeometry y="40" width="100" height="60" as="geometry"/>
                </mxCell>
                <mxCell id="17" value="单据" style="strokeWidth=2;html=1;shape=mxgraph.flowchart.document2;whiteSpace=wrap;size=0.25;fontFamily=仿宋;" vertex="1" parent="24">
                    <mxGeometry y="100" width="100" height="40" as="geometry"/>
                </mxCell>
                <mxCell id="18" value="流程负责人" style="rounded=1;whiteSpace=wrap;html=1;absoluteArcSize=1;arcSize=14;strokeWidth=2;fontFamily=仿宋;" vertex="1" parent="24">
                    <mxGeometry width="100" height="40" as="geometry"/>
                </mxCell>
                <mxCell id="4" value="用户" style="swimlane;startSize=20;horizontal=0;html=1;fillColor=#dae8fc;gradientColor=none;strokeColor=#6c8ebf;labelPosition=center;verticalLabelPosition=middle;align=center;verticalAlign=middle;fontFamily=仿宋;" parent="1" vertex="1">
                    <mxGeometry x="70" y="260" width="940" height="240" as="geometry">
                        <mxRectangle x="20" y="240" width="940" height="30" as="alternateBounds"/>
                    </mxGeometry>
                </mxCell>
                <mxCell id="26" value="" style="group" vertex="1" connectable="0" parent="4">
                    <mxGeometry x="260" y="80" width="100" height="140" as="geometry"/>
                </mxCell>
                <mxCell id="36" value="简单流程&lt;br&gt;可以直接简化表示" style="rounded=1;whiteSpace=wrap;html=1;absoluteArcSize=1;arcSize=14;strokeWidth=2;fontFamily=仿宋;" vertex="1" parent="4">
                    <mxGeometry x="260" y="90" width="100" height="60" as="geometry"/>
                </mxCell>
                <mxCell id="5" value="订单系统" style="swimlane;startSize=20;horizontal=0;html=1;fillColor=#dae8fc;gradientColor=none;strokeColor=#6c8ebf;fontFamily=仿宋;" parent="1" vertex="1">
                    <mxGeometry x="70" y="500" width="940" height="240" as="geometry"/>
                </mxCell>
                <mxCell id="33" value="流程名称" style="rounded=1;whiteSpace=wrap;html=1;absoluteArcSize=1;arcSize=14;strokeWidth=2;fontFamily=仿宋;" vertex="1" parent="5">
                    <mxGeometry x="480" y="80" width="100" height="60" as="geometry"/>
                </mxCell>
                <mxCell id="34" style="edgeStyle=none;html=1;exitX=1;exitY=0.5;exitDx=0;exitDy=0;entryX=0;entryY=0.5;entryDx=0;entryDy=0;fontFamily=仿宋;" edge="1" parent="5" source="28" target="33">
                    <mxGeometry relative="1" as="geometry"/>
                </mxCell>
                <mxCell id="20" value="结束" style="strokeWidth=2;html=1;shape=mxgraph.flowchart.start_1;whiteSpace=wrap;fontFamily=仿宋;" vertex="1" parent="5">
                    <mxGeometry x="710" y="80" width="100" height="60" as="geometry"/>
                </mxCell>
                <mxCell id="35" style="edgeStyle=none;html=1;exitX=1;exitY=0.5;exitDx=0;exitDy=0;entryX=0;entryY=0.5;entryDx=0;entryDy=0;entryPerimeter=0;fontFamily=仿宋;" edge="1" parent="5" source="33" target="20">
                    <mxGeometry relative="1" as="geometry"/>
                </mxCell>
                <mxCell id="39" value="" style="group" vertex="1" connectable="0" parent="5">
                    <mxGeometry x="260" y="80" width="100" height="100" as="geometry"/>
                </mxCell>
                <mxCell id="28" value="流程名称" style="rounded=1;whiteSpace=wrap;html=1;absoluteArcSize=1;arcSize=14;strokeWidth=2;fontFamily=仿宋;" vertex="1" parent="39">
                    <mxGeometry width="100" height="60" as="geometry"/>
                </mxCell>
                <mxCell id="29" value="单据" style="strokeWidth=2;html=1;shape=mxgraph.flowchart.document2;whiteSpace=wrap;size=0.25;fontFamily=仿宋;" vertex="1" parent="39">
                    <mxGeometry y="60" width="100" height="40" as="geometry"/>
                </mxCell>
                <mxCell id="11" value="订单系统" style="swimlane;startSize=20;horizontal=0;html=1;fillColor=#dae8fc;gradientColor=none;strokeColor=#6c8ebf;fontFamily=仿宋;" parent="1" vertex="1">
                    <mxGeometry x="70" y="740" width="940" height="240" as="geometry"/>
                </mxCell>
                <mxCell id="37" style="edgeStyle=none;html=1;entryX=0.5;entryY=0;entryDx=0;entryDy=0;fontFamily=仿宋;" edge="1" parent="1" source="19" target="36">
                    <mxGeometry relative="1" as="geometry"/>
                </mxCell>
                <mxCell id="38" style="edgeStyle=none;html=1;exitX=0.5;exitY=1;exitDx=0;exitDy=0;entryX=0.5;entryY=0;entryDx=0;entryDy=0;fontFamily=仿宋;" edge="1" parent="1" source="36" target="28">
                    <mxGeometry relative="1" as="geometry"/>
                </mxCell>
            </root>
        </mxGraphModel>
    </diagram>
</mxfile>